<?xml version="1.0" encoding="UTF-8"?>
<!-- Generator: visioncortex VTracer 0.6.5 -->
<svg version="1.1" xmlns="http://www.w3.org/2000/svg" width="1078" height="927"><defs><radialGradient id="g0" gradientUnits="userSpaceOnUse" cx="200.3" cy="429.7" r="450.6"><stop offset="0%" stop-color="#d6d6d5"/><stop offset="11%" stop-color="#767575"/><stop offset="22%" stop-color="#807f7f"/><stop offset="33%" stop-color="#bfbfbf"/><stop offset="44%" stop-color="#a0a0a0"/><stop offset="56%" stop-color="#706f6f"/><stop offset="67%" stop-color="#7e7d7d"/><stop offset="78%" stop-color="#cecece"/><stop offset="89%" stop-color="#828281"/><stop offset="100%" stop-color="#b5b5b5"/></radialGradient><linearGradient id="g1" gradientUnits="userSpaceOnUse" x1="31.1" y1="205.6" x2="55.8" y2="321.8"><stop offset="0%" stop-color="#d6d9d6"/><stop offset="20%" stop-color="#acaeac"/><stop offset="40%" stop-color="#707070"/><stop offset="60%" stop-color="#7c7c7c"/><stop offset="80%" stop-color="#cecfce"/><stop offset="100%" stop-color="#424341"/></linearGradient><linearGradient id="g2" gradientUnits="userSpaceOnUse" x1="-39.3" y1="261.9" x2="-48.9" y2="262.1"><stop offset="0%" stop-color="#a2a2a3"/><stop offset="14%" stop-color="#eaeaea"/><stop offset="29%" stop-color="#959595"/><stop offset="43%" stop-color="#666666"/><stop offset="57%" stop-color="#838383"/><stop offset="71%" stop-color="#878686"/><stop offset="86%" stop-color="#818080"/><stop offset="100%" stop-color="#a3a3a3"/></linearGradient><linearGradient id="g3" gradientUnits="userSpaceOnUse" x1="-49.3" y1="67.2" x2="-42.3" y2="72.0"><stop offset="8%" stop-color="#cdcdcd"/><stop offset="15%" stop-color="#9f9f9f"/><stop offset="23%" stop-color="#636262"/><stop offset="31%" stop-color="#5b5959"/><stop offset="38%" stop-color="#5c5a5a"/><stop offset="46%" stop-color="#7f7e7e"/><stop offset="54%" stop-color="#5d5b5c"/><stop offset="62%" stop-color="#747374"/><stop offset="77%" stop-color="#dfe0df"/></linearGradient><linearGradient id="g4" gradientUnits="userSpaceOnUse" x1="-30.5" y1="62.0" x2="-21.8" y2="65.4"><stop offset="0%" stop-color="#f6f6f6"/><stop offset="11%" stop-color="#908f8e"/><stop offset="22%" stop-color="#504e4e"/><stop offset="33%" stop-color="#626161"/><stop offset="44%" stop-color="#656464"/><stop offset="56%" stop-color="#8e8e8e"/><stop offset="67%" stop-color="#5a5a5c"/><stop offset="78%" stop-color="#4a4b4d"/><stop offset="89%" stop-color="#d3d3d6"/><stop offset="100%" stop-color="#8e8e8f"/></linearGradient><linearGradient id="g5" gradientUnits="userSpaceOnUse" x1="100.3" y1="-0.9" x2="100.1" y2="5.9"><stop offset="0%" stop-color="#efefee"/><stop offset="8%" stop-color="#a3a4a4"/><stop offset="17%" stop-color="#656566"/><stop offset="25%" stop-color="#5b5a5b"/><stop offset="33%" stop-color="#838383"/><stop offset="42%" stop-color="#8a898a"/><stop offset="50%" stop-color="#7d7d7e"/><stop offset="58%" stop-color="#8b8b8b"/><stop offset="67%" stop-color="#6c6c6d"/><stop offset="75%" stop-color="#616162"/><stop offset="83%" stop-color="#6a6a69"/><stop offset="92%" stop-color="#dcdcdc"/><stop offset="100%" stop-color="#c7c7c6"/></linearGradient><linearGradient id="g6" gradientUnits="userSpaceOnUse" x1="-11.1" y1="155.0" x2="-4.7" y2="155.6"><stop offset="0%" stop-color="#e0e0e0"/><stop offset="10%" stop-color="#e9e9e9"/><stop offset="20%" stop-color="#d9dad8"/><stop offset="30%" stop-color="#bbbbbb"/><stop offset="40%" stop-color="#a0a09f"/><stop offset="50%" stop-color="#a3a2a2"/><stop offset="60%" stop-color="#7c7c7b"/><stop offset="70%" stop-color="#6a6a6a"/><stop offset="80%" stop-color="#696868"/><stop offset="90%" stop-color="#aeadaf"/><stop offset="100%" stop-color="#d8d9d9"/></linearGradient><linearGradient id="g7" gradientUnits="userSpaceOnUse" x1="-21.4" y1="67.7" x2="-14.1" y2="70.1"><stop offset="0%" stop-color="#f5f5f4"/><stop offset="40%" stop-color="#7b7b79"/><stop offset="60%" stop-color="#797878"/><stop offset="80%" stop-color="#626161"/><stop offset="100%" stop-color="#d2d2d0"/></linearGradient><linearGradient id="g8" gradientUnits="userSpaceOnUse" x1="57.9" y1="3.0" x2="53.1" y2="17.8"><stop offset="0.0%" stop-color="#ececec"/><stop offset="33.3%" stop-color="#8a898a"/><stop offset="66.7%" stop-color="#9d9d9d"/><stop offset="100.0%" stop-color="#eaebea"/></linearGradient><radialGradient id="g9" gradientUnits="userSpaceOnUse" cx="-26.7" cy="39.8" r="85.3"><stop offset="0.0%" stop-color="#717070"/><stop offset="33.3%" stop-color="#757575"/><stop offset="66.7%" stop-color="#f3f4f4"/><stop offset="100.0%" stop-color="#f4f4f4"/></radialGradient><linearGradient id="g10" gradientUnits="userSpaceOnUse" x1="-11.3" y1="29.1" x2="19.0" y2="40.8"><stop offset="0%" stop-color="#858584"/><stop offset="14%" stop-color="#757475"/><stop offset="29%" stop-color="#6c6b6c"/><stop offset="43%" stop-color="#757575"/><stop offset="57%" stop-color="#605f5f"/><stop offset="71%" stop-color="#656464"/><stop offset="86%" stop-color="#7e7e7d"/><stop offset="100%" stop-color="#eff0f1"/></linearGradient><linearGradient id="g11" gradientUnits="userSpaceOnUse" x1="29.4" y1="0.8" x2="27.5" y2="7.7"><stop offset="0.0%" stop-color="#d7d6d7"/><stop offset="50.0%" stop-color="#8b8b8c"/><stop offset="100.0%" stop-color="#aaaaa9"/></linearGradient><linearGradient id="g12" gradientUnits="userSpaceOnUse" x1="61.9" y1="8.8" x2="60.8" y2="15.9"><stop offset="0%" stop-color="#f7f7f8"/><stop offset="11%" stop-color="#bebebd"/><stop offset="22%" stop-color="#696868"/><stop offset="33%" stop-color="#747474"/><stop offset="44%" stop-color="#a8a8a9"/><stop offset="56%" stop-color="#7c7b7b"/><stop offset="67%" stop-color="#838282"/><stop offset="78%" stop-color="#737273"/><stop offset="89%" stop-color="#818182"/><stop offset="100%" stop-color="#959797"/></linearGradient><linearGradient id="g13" gradientUnits="userSpaceOnUse" x1="59.3" y1="3.1" x2="58.8" y2="10.3"><stop offset="0%" stop-color="#909091"/><stop offset="13%" stop-color="#767576"/><stop offset="25%" stop-color="#767676"/><stop offset="38%" stop-color="#919192"/><stop offset="50%" stop-color="#838384"/><stop offset="63%" stop-color="#8f8f90"/><stop offset="75%" stop-color="#767677"/><stop offset="88%" stop-color="#a9a9a9"/><stop offset="100%" stop-color="#dddddd"/></linearGradient><linearGradient id="g14" gradientUnits="userSpaceOnUse" x1="59.3" y1="6.2" x2="58.6" y2="12.9"><stop offset="0%" stop-color="#b8b8b9"/><stop offset="20%" stop-color="#878687"/><stop offset="40%" stop-color="#7c7b7c"/><stop offset="60%" stop-color="#8d8d8e"/><stop offset="80%" stop-color="#787979"/><stop offset="100%" stop-color="#e0e1e0"/></linearGradient><linearGradient id="g15" gradientUnits="userSpaceOnUse" x1="-13.7" y1="45.3" x2="5.0" y2="47.7"><stop offset="0%" stop-color="#6f706f"/><stop offset="20%" stop-color="#595858"/><stop offset="40%" stop-color="#605f60"/><stop offset="60%" stop-color="#f5f5f5"/><stop offset="80%" stop-color="#a7a7a8"/><stop offset="100%" stop-color="#ebebeb"/></linearGradient><linearGradient id="g16" gradientUnits="userSpaceOnUse" x1="5.3" y1="51.3" x2="-8.0" y2="52.6"><stop offset="0%" stop-color="#3b3c3c"/><stop offset="11%" stop-color="#606060"/><stop offset="22%" stop-color="#3d3d3d"/><stop offset="33%" stop-color="#747373"/><stop offset="44%" stop-color="#5a5959"/><stop offset="56%" stop-color="#727172"/><stop offset="67%" stop-color="#5c5b5b"/><stop offset="78%" stop-color="#414040"/><stop offset="89%" stop-color="#535352"/><stop offset="100%" stop-color="#3b3939"/></linearGradient><linearGradient id="g17" gradientUnits="userSpaceOnUse" x1="-25.6" y1="56.5" x2="-17.9" y2="58.7"><stop offset="0%" stop-color="#cecfcd"/><stop offset="17%" stop-color="#676767"/><stop offset="33%" stop-color="#6d6c6c"/><stop offset="50%" stop-color="#b7b7b7"/><stop offset="67%" stop-color="#535154"/><stop offset="83%" stop-color="#413e40"/></linearGradient><linearGradient id="g18" gradientUnits="userSpaceOnUse" x1="-32.1" y1="41.9" x2="-8.9" y2="65.0"><stop offset="0%" stop-color="#9e9e9e"/><stop offset="17%" stop-color="#787778"/><stop offset="33%" stop-color="#6d6c6c"/><stop offset="50%" stop-color="#949293"/><stop offset="67%" stop-color="#6f6e6f"/><stop offset="83%" stop-color="#767676"/><stop offset="100%" stop-color="#767475"/></linearGradient><linearGradient id="g19" gradientUnits="userSpaceOnUse" x1="2.7" y1="42.3" x2="-3.6" y2="42.5"><stop offset="0%" stop-color="#bdbdbd"/><stop offset="20%" stop-color="#6a6969"/><stop offset="40%" stop-color="#acacac"/><stop offset="60%" stop-color="#6b6b6b"/><stop offset="80%" stop-color="#9b9a9a"/><stop offset="100%" stop-color="#636364"/></linearGradient><linearGradient id="g20" gradientUnits="userSpaceOnUse" x1="11.7" y1="-0.4" x2="5.6" y2="11.4"><stop offset="0%" stop-color="#adaeae"/><stop offset="13%" stop-color="#e6e7e6"/><stop offset="25%" stop-color="#f5f6f6"/><stop offset="38%" stop-color="#f7f6f7"/><stop offset="50%" stop-color="#f9f8fa"/><stop offset="63%" stop-color="#f8f9f9"/><stop offset="75%" stop-color="#fbfbfb"/><stop offset="88%" stop-color="#fbfbfb"/></linearGradient><linearGradient id="g21" gradientUnits="userSpaceOnUse" x1="44.4" y1="4.3" x2="43.7" y2="11.0"><stop offset="0%" stop-color="#b2b2b1"/><stop offset="17%" stop-color="#929292"/><stop offset="33%" stop-color="#98989a"/><stop offset="50%" stop-color="#a6a6a7"/><stop offset="67%" stop-color="#9b9a9b"/><stop offset="83%" stop-color="#989798"/><stop offset="100%" stop-color="#cacbcb"/></linearGradient><linearGradient id="g22" gradientUnits="userSpaceOnUse" x1="49.6" y1="7.3" x2="47.9" y2="13.6"><stop offset="0%" stop-color="#cacacb"/><stop offset="25%" stop-color="#7c7c7c"/><stop offset="50%" stop-color="#575757"/><stop offset="75%" stop-color="#585858"/><stop offset="100%" stop-color="#a6a6a5"/></linearGradient><linearGradient id="g23" gradientUnits="userSpaceOnUse" x1="-15.1" y1="14.6" x2="-1.4" y2="16.7"><stop offset="0.0%" stop-color="#e2e1e2"/><stop offset="50.0%" stop-color="#7f7e7d"/><stop offset="100.0%" stop-color="#7c7b7b"/></linearGradient><linearGradient id="g24" gradientUnits="userSpaceOnUse" x1="39.1" y1="-1.5" x2="39.5" y2="4.6"><stop offset="0%" stop-color="#333434"/><stop offset="7%" stop-color="#363536"/><stop offset="14%" stop-color="#3a393a"/><stop offset="21%" stop-color="#707070"/><stop offset="29%" stop-color="#6f6f6f"/><stop offset="36%" stop-color="#7c7c7c"/><stop offset="43%" stop-color="#757474"/><stop offset="50%" stop-color="#888888"/><stop offset="57%" stop-color="#898a89"/><stop offset="64%" stop-color="#373737"/><stop offset="71%" stop-color="#636363"/><stop offset="79%" stop-color="#8a8a8b"/><stop offset="86%" stop-color="#cececf"/><stop offset="93%" stop-color="#494849"/><stop offset="100%" stop-color="#3d3d3d"/></linearGradient><linearGradient id="g25" gradientUnits="userSpaceOnUse" x1="15.3" y1="9.8" x2="13.7" y2="25.1"><stop offset="0%" stop-color="#8f8e8f"/><stop offset="17%" stop-color="#737273"/><stop offset="33%" stop-color="#4d4c4d"/><stop offset="50%" stop-color="#2d2d2b"/><stop offset="67%" stop-color="#676667"/><stop offset="83%" stop-color="#636363"/><stop offset="100%" stop-color="#787677"/></linearGradient><linearGradient id="g26" gradientUnits="userSpaceOnUse" x1="-11.3" y1="17.1" x2="-5.5" y2="20.5"><stop offset="0.0%" stop-color="#9d9b9b"/><stop offset="33.3%" stop-color="#727070"/><stop offset="66.7%" stop-color="#757475"/><stop offset="100.0%" stop-color="#cfcfcf"/></linearGradient><linearGradient id="g27" gradientUnits="userSpaceOnUse" x1="36.2" y1="4.9" x2="34.0" y2="11.6"><stop offset="0%" stop-color="#d8d8d8"/><stop offset="20%" stop-color="#8d8c8d"/><stop offset="40%" stop-color="#9a9a9b"/><stop offset="60%" stop-color="#727272"/><stop offset="80%" stop-color="#797979"/><stop offset="100%" stop-color="#888888"/></linearGradient><linearGradient id="g28" gradientUnits="userSpaceOnUse" x1="1.4" y1="24.9" x2="1.5" y2="31.0"><stop offset="0.0%" stop-color="#e0dfe1"/><stop offset="50.0%" stop-color="#727172"/><stop offset="100.0%" stop-color="#929292"/></linearGradient><linearGradient id="g29" gradientUnits="userSpaceOnUse" x1="44.0" y1="2.4" x2="42.8" y2="8.5"><stop offset="0%" stop-color="#edeeec"/><stop offset="25%" stop-color="#888787"/><stop offset="50%" stop-color="#858585"/><stop offset="75%" stop-color="#787778"/><stop offset="100%" stop-color="#c5c5c5"/></linearGradient><linearGradient id="g30" gradientUnits="userSpaceOnUse" x1="28.3" y1="1.0" x2="26.9" y2="7.2"><stop offset="0.0%" stop-color="#9a9a99"/><stop offset="33.3%" stop-color="#808080"/><stop offset="66.7%" stop-color="#848384"/><stop offset="100.0%" stop-color="#cac9ca"/></linearGradient><radialGradient id="g31" gradientUnits="userSpaceOnUse" cx="29.2" cy="4.6" r="30.0"><stop offset="0%" stop-color="#8f8f90"/><stop offset="25%" stop-color="#7b7a7a"/><stop offset="50%" stop-color="#8f8e8f"/><stop offset="75%" stop-color="#4f4e4e"/><stop offset="100%" stop-color="#7e7d7e"/></radialGradient><linearGradient id="g32" gradientUnits="userSpaceOnUse" x1="-5.3" y1="-0.9" x2="-5.6" y2="5.1"><stop offset="0%" stop-color="#626162"/><stop offset="14%" stop-color="#acadad"/><stop offset="29%" stop-color="#676767"/><stop offset="43%" stop-color="#b5b6b6"/><stop offset="57%" stop-color="#4e4e4e"/><stop offset="71%" stop-color="#bcbcbb"/><stop offset="86%" stop-color="#727071"/><stop offset="100%" stop-color="#f3f3f3"/></linearGradient><radialGradient id="g33" gradientUnits="userSpaceOnUse" cx="-1.5" cy="5.8" r="6.6"><stop offset="0.0%" stop-color="#f3f3f3"/><stop offset="50.0%" stop-color="#b5b5b5"/><stop offset="100.0%" stop-color="#767676"/></radialGradient><linearGradient id="g34" gradientUnits="userSpaceOnUse" x1="-4.0" y1="2.8" x2="1.7" y2="10.6"><stop offset="0%" stop-color="#474648"/><stop offset="25%" stop-color="#9c9c9c"/><stop offset="50%" stop-color="#e7e7e7"/><stop offset="75%" stop-color="#cacac9"/><stop offset="100%" stop-color="#9f9e9e"/></linearGradient><linearGradient id="g35" gradientUnits="userSpaceOnUse" x1="-3.7" y1="3.5" x2="2.7" y2="8.1"><stop offset="0%" stop-color="#8a8a89"/><stop offset="25%" stop-color="#7e7c7d"/><stop offset="50%" stop-color="#d3d3d3"/><stop offset="75%" stop-color="#c5c4c4"/><stop offset="100%" stop-color="#757374"/></linearGradient><linearGradient id="g36" gradientUnits="userSpaceOnUse" x1="-5.3" y1="5.2" x2="2.6" y2="7.7"><stop offset="0%" stop-color="#939290"/><stop offset="25%" stop-color="#7b7a7a"/><stop offset="50%" stop-color="#d9d9d9"/><stop offset="75%" stop-color="#c6c5c5"/><stop offset="100%" stop-color="#91918f"/></linearGradient><radialGradient id="g37" gradientUnits="userSpaceOnUse" cx="0.8" cy="6.9" r="6.8"><stop offset="0%" stop-color="#f9f9f9"/><stop offset="25%" stop-color="#e0e0e0"/><stop offset="50%" stop-color="#b5b5b5"/><stop offset="75%" stop-color="#848484"/><stop offset="100%" stop-color="#a7a7a6"/></radialGradient><linearGradient id="g38" gradientUnits="userSpaceOnUse" x1="-13.0" y1="18.6" x2="-5.6" y2="21.4"><stop offset="0%" stop-color="#797978"/><stop offset="20%" stop-color="#7a7979"/><stop offset="40%" stop-color="#898889"/><stop offset="60%" stop-color="#888787"/><stop offset="80%" stop-color="#878586"/><stop offset="100%" stop-color="#d8d8d9"/></linearGradient><radialGradient id="g39" gradientUnits="userSpaceOnUse" cx="-0.5" cy="6.6" r="7.2"><stop offset="0%" stop-color="#f8f8f8"/><stop offset="25%" stop-color="#d4d4d4"/><stop offset="50%" stop-color="#a4a4a4"/><stop offset="75%" stop-color="#848383"/><stop offset="100%" stop-color="#afafb0"/></radialGradient><linearGradient id="g40" gradientUnits="userSpaceOnUse" x1="21.0" y1="-0.0" x2="19.6" y2="5.8"><stop offset="0.0%" stop-color="#969696"/><stop offset="33.3%" stop-color="#727172"/><stop offset="66.7%" stop-color="#848585"/><stop offset="100.0%" stop-color="#eaeaea"/></linearGradient><linearGradient id="g41" gradientUnits="userSpaceOnUse" x1="5.1" y1="2.7" x2="-14.1" y2="40.3"><stop offset="0%" stop-color="#676666"/><stop offset="20%" stop-color="#999999"/><stop offset="40%" stop-color="#929292"/><stop offset="60%" stop-color="#7f7f7f"/><stop offset="80%" stop-color="#807f7f"/><stop offset="100%" stop-color="#646264"/></linearGradient><linearGradient id="g42" gradientUnits="userSpaceOnUse" x1="-11.8" y1="4.5" x2="-5.1" y2="10.0"><stop offset="0.0%" stop-color="#8b8a89"/><stop offset="100.0%" stop-color="#a1a1a1"/></linearGradient><linearGradient id="g43" gradientUnits="userSpaceOnUse" x1="18.1" y1="-2.8" x2="20.2" y2="10.3"><stop offset="0%" stop-color="#8f8e8f"/><stop offset="17%" stop-color="#a1a0a0"/><stop offset="33%" stop-color="#aaa9aa"/><stop offset="50%" stop-color="#a3a4a5"/><stop offset="67%" stop-color="#9f9f9f"/><stop offset="83%" stop-color="#9c9b9c"/><stop offset="100%" stop-color="#464647"/></linearGradient><linearGradient id="g44" gradientUnits="userSpaceOnUse" x1="13.3" y1="-1.4" x2="14.0" y2="4.7"><stop offset="0.0%" stop-color="#f8f8f8"/><stop offset="33.3%" stop-color="#f9f9f9"/><stop offset="66.7%" stop-color="#f4f4f4"/><stop offset="100.0%" stop-color="#e2e2e2"/></linearGradient><linearGradient id="g45" gradientUnits="userSpaceOnUse" x1="18.9" y1="0.8" x2="18.6" y2="7.0"><stop offset="0.0%" stop-color="#e3e2e3"/><stop offset="33.3%" stop-color="#c4c4c4"/><stop offset="66.7%" stop-color="#b9b9b9"/><stop offset="100.0%" stop-color="#aeaeae"/></linearGradient><linearGradient id="g46" gradientUnits="userSpaceOnUse" x1="-3.8" y1="22.3" x2="4.9" y2="23.7"><stop offset="0%" stop-color="#e4e4e3"/><stop offset="14%" stop-color="#d6d6d6"/><stop offset="29%" stop-color="#e8e8e8"/><stop offset="43%" stop-color="#eaeaea"/><stop offset="57%" stop-color="#b2b3b2"/><stop offset="71%" stop-color="#bebebe"/><stop offset="86%" stop-color="#bbbbba"/><stop offset="100%" stop-color="#c0c0bf"/></linearGradient><linearGradient id="g47" gradientUnits="userSpaceOnUse" x1="13.9" y1="-0.4" x2="11.0" y2="6.5"><stop offset="0.0%" stop-color="#bebdbd"/><stop offset="33.3%" stop-color="#808080"/><stop offset="66.7%" stop-color="#5e5e5d"/><stop offset="100.0%" stop-color="#787777"/></linearGradient><linearGradient id="g48" gradientUnits="userSpaceOnUse" x1="-5.7" y1="17.4" x2="0.2" y2="19.2"><stop offset="0%" stop-color="#d1d2d1"/><stop offset="20%" stop-color="#949494"/><stop offset="40%" stop-color="#8c8c8b"/><stop offset="60%" stop-color="#797878"/><stop offset="80%" stop-color="#9d9c9d"/><stop offset="100%" stop-color="#e2e2e2"/></linearGradient><linearGradient id="g49" gradientUnits="userSpaceOnUse" x1="15.0" y1="-0.2" x2="13.3" y2="5.7"><stop offset="0%" stop-color="#f4f4f4"/><stop offset="20%" stop-color="#d4d4d4"/><stop offset="40%" stop-color="#a5a5a5"/><stop offset="60%" stop-color="#9a9a9a"/><stop offset="80%" stop-color="#a4a4a5"/><stop offset="100%" stop-color="#bfbfbf"/></linearGradient><linearGradient id="g50" gradientUnits="userSpaceOnUse" x1="-3.4" y1="18.1" x2="2.6" y2="19.1"><stop offset="0%" stop-color="#959695"/><stop offset="17%" stop-color="#a9a9a9"/><stop offset="33%" stop-color="#dbdbdb"/><stop offset="50%" stop-color="#eeeeee"/><stop offset="67%" stop-color="#f4f4f4"/><stop offset="83%" stop-color="#f6f6f6"/><stop offset="100%" stop-color="#f9f8f8"/></linearGradient><linearGradient id="g51" gradientUnits="userSpaceOnUse" x1="-10.3" y1="11.9" x2="-4.4" y2="16.8"><stop offset="0.0%" stop-color="#7f7e7d"/><stop offset="50.0%" stop-color="#6b6a6a"/><stop offset="100.0%" stop-color="#838182"/></linearGradient><linearGradient id="g52" gradientUnits="userSpaceOnUse" x1="13.9" y1="5.2" x2="10.8" y2="13.3"><stop offset="0.0%" stop-color="#909190"/><stop offset="50.0%" stop-color="#858584"/><stop offset="100.0%" stop-color="#b0afaf"/></linearGradient><linearGradient id="g53" gradientUnits="userSpaceOnUse" x1="8.0" y1="13.1" x2="-0.5" y2="18.2"><stop offset="0.0%" stop-color="#545655"/><stop offset="33.3%" stop-color="#525252"/><stop offset="66.7%" stop-color="#727272"/><stop offset="100.0%" stop-color="#353434"/></linearGradient><radialGradient id="g54" gradientUnits="userSpaceOnUse" cx="11.0" cy="2.4" r="11.7"><stop offset="0.0%" stop-color="#6f6f70"/><stop offset="100.0%" stop-color="#908f90"/></radialGradient><linearGradient id="g55" gradientUnits="userSpaceOnUse" x1="14.0" y1="-3.2" x2="8.7" y2="5.9"><stop offset="0.0%" stop-color="#fbfbfb"/><stop offset="50.0%" stop-color="#f7f7f7"/><stop offset="100.0%" stop-color="#f8f8f8"/></linearGradient><linearGradient id="g56" gradientUnits="userSpaceOnUse" x1="-6.5" y1="7.6" x2="-0.7" y2="11.7"><stop offset="0.0%" stop-color="#bbbcbb"/><stop offset="50.0%" stop-color="#676666"/><stop offset="100.0%" stop-color="#908f91"/></linearGradient><linearGradient id="g57" gradientUnits="userSpaceOnUse" x1="-2.7" y1="8.4" x2="3.2" y2="9.9"><stop offset="0.0%" stop-color="#fbfbfb"/><stop offset="33.3%" stop-color="#e4e5e4"/><stop offset="66.7%" stop-color="#c6c6c6"/><stop offset="100.0%" stop-color="#868586"/></linearGradient><linearGradient id="g58" gradientUnits="userSpaceOnUse" x1="4.4" y1="19.3" x2="-2.4" y2="20.8"><stop offset="0.0%" stop-color="#fcfcfc"/><stop offset="33.3%" stop-color="#f4f4f4"/><stop offset="66.7%" stop-color="#fafafb"/><stop offset="100.0%" stop-color="#ffffff"/></linearGradient><linearGradient id="g59" gradientUnits="userSpaceOnUse" x1="-0.4" y1="-2.2" x2="1.9" y2="6.4"><stop offset="0.0%" stop-color="#e0e0e1"/><stop offset="100.0%" stop-color="#9a9a9a"/></linearGradient><linearGradient id="g60" gradientUnits="userSpaceOnUse" x1="-3.7" y1="10.7" x2="2.6" y2="12.8"><stop offset="0%" stop-color="#a7a7a7"/><stop offset="25%" stop-color="#818181"/><stop offset="50%" stop-color="#7c7c7d"/><stop offset="75%" stop-color="#9d9c9e"/><stop offset="100%" stop-color="#a4a4a6"/></linearGradient><linearGradient id="g61" gradientUnits="userSpaceOnUse" x1="1.8" y1="-1.4" x2="-0.5" y2="4.8"><stop offset="0.0%" stop-color="#eaeaea"/><stop offset="100.0%" stop-color="#999999"/></linearGradient><linearGradient id="g62" gradientUnits="userSpaceOnUse" x1="-3.3" y1="16.3" x2="3.0" y2="17.2"><stop offset="0%" stop-color="#f9f9f9"/><stop offset="20%" stop-color="#e7e7e7"/><stop offset="40%" stop-color="#e5e6e5"/><stop offset="60%" stop-color="#dedfde"/><stop offset="80%" stop-color="#b0b0b0"/><stop offset="100%" stop-color="#6e6f6e"/></linearGradient><linearGradient id="g63" gradientUnits="userSpaceOnUse" x1="10.3" y1="9.7" x2="4.0" y2="16.0"><stop offset="0%" stop-color="#8c8c8c"/><stop offset="25%" stop-color="#868686"/><stop offset="50%" stop-color="#969797"/><stop offset="75%" stop-color="#8d8d8d"/><stop offset="100%" stop-color="#bcbcbc"/></linearGradient><linearGradient id="g64" gradientUnits="userSpaceOnUse" x1="-3.6" y1="0.4" x2="-3.6" y2="21.4"><stop offset="0.0%" stop-color="#5e5c5c"/><stop offset="33.3%" stop-color="#616160"/><stop offset="66.7%" stop-color="#7d7c7c"/><stop offset="100.0%" stop-color="#212121"/></linearGradient><radialGradient id="g65" gradientUnits="userSpaceOnUse" cx="8.5" cy="1.8" r="9.4"><stop offset="0.0%" stop-color="#929291"/><stop offset="50.0%" stop-color="#686767"/><stop offset="100.0%" stop-color="#444444"/></radialGradient><linearGradient id="g66" gradientUnits="userSpaceOnUse" x1="3.5" y1="6.7" x2="-2.2" y2="8.8"><stop offset="0.0%" stop-color="#8b8a8a"/><stop offset="50.0%" stop-color="#dddddd"/><stop offset="100.0%" stop-color="#ececeb"/></linearGradient><linearGradient id="g67" gradientUnits="userSpaceOnUse" x1="-3.0" y1="-3.3" x2="-6.3" y2="5.4"><stop offset="0.0%" stop-color="#5c5d5d"/><stop offset="33.3%" stop-color="#9d9d9d"/><stop offset="66.7%" stop-color="#818181"/><stop offset="100.0%" stop-color="#747475"/></linearGradient><linearGradient id="g68" gradientUnits="userSpaceOnUse" x1="-1.8" y1="1.7" x2="2.0" y2="6.7"><stop offset="0.0%" stop-color="#4a4849"/><stop offset="50.0%" stop-color="#555454"/><stop offset="100.0%" stop-color="#8a8a8a"/></linearGradient><linearGradient id="g69" gradientUnits="userSpaceOnUse" x1="-6.2" y1="6.6" x2="-0.7" y2="11.6"><stop offset="0.0%" stop-color="#b3b2b2"/><stop offset="33.3%" stop-color="#868485"/><stop offset="66.7%" stop-color="#969596"/><stop offset="100.0%" stop-color="#676465"/></linearGradient><linearGradient id="g70" gradientUnits="userSpaceOnUse" x1="9.6" y1="-1.4" x2="10.9" y2="4.7"><stop offset="0.0%" stop-color="#777777"/><stop offset="50.0%" stop-color="#949495"/><stop offset="100.0%" stop-color="#5a595a"/></linearGradient><linearGradient id="g71" gradientUnits="userSpaceOnUse" x1="2.0" y1="8.6" x2="-4.4" y2="9.0"><stop offset="0.0%" stop-color="#d6d7d5"/><stop offset="50.0%" stop-color="#efefef"/><stop offset="100.0%" stop-color="#fafafa"/></linearGradient><linearGradient id="g72" gradientUnits="userSpaceOnUse" x1="-5.3" y1="8.0" x2="0.8" y2="11.8"><stop offset="0%" stop-color="#cbcbcb"/><stop offset="25%" stop-color="#9f9f9f"/><stop offset="50%" stop-color="#7c7b7b"/><stop offset="75%" stop-color="#9f9f9f"/><stop offset="100%" stop-color="#d1d1d1"/></linearGradient><linearGradient id="g73" gradientUnits="userSpaceOnUse" x1="14.1" y1="-3.1" x2="15.4" y2="3.4"><stop offset="0.0%" stop-color="#909090"/><stop offset="33.3%" stop-color="#d2d3d3"/><stop offset="66.7%" stop-color="#cacaca"/><stop offset="100.0%" stop-color="#eaeaea"/></linearGradient><radialGradient id="g74" gradientUnits="userSpaceOnUse" cx="-3.4" cy="7.9" r="8.9"><stop offset="0.0%" stop-color="#6e6b6c"/><stop offset="33.3%" stop-color="#9f9e9f"/><stop offset="66.7%" stop-color="#9c9b9b"/><stop offset="100.0%" stop-color="#979796"/></radialGradient><linearGradient id="g75" gradientUnits="userSpaceOnUse" x1="-8.9" y1="8.2" x2="-0.6" y2="9.5"><stop offset="0.0%" stop-color="#929191"/><stop offset="50.0%" stop-color="#a2a1a1"/><stop offset="100.0%" stop-color="#b6b6b6"/></linearGradient></defs>
<path d="M0,0 L1078,0 L1078,927 L0,927 Z " fill="#fefefe" transform="translate(0,0)"/>
<path d="M0,0 L52,0 L71,1 L227,2 L279,6 L285,7 L285,9 L290,9 L299,15 L304,19 L307,20 L313,29 L317,34 L323,45 L327,52 L330,58 L335,66 L343,83 L350,96 L359,109 L359,111 L340,112 L334,113 L296,116 L257,119 L244,120 L242,137 L238,179 L236,268 L234,316 L230,361 L226,395 L221,421 L214,452 L208,473 L203,488 L195,514 L191,527 L179,562 L175,571 L170,582 L165,594 L155,617 L146,636 L133,659 L123,676 L116,688 L111,700 L109,700 L107,706 L95,728 L89,740 L86,742 L88,737 L96,721 L99,715 L103,708 L108,698 L116,683 L122,672 L131,657 L138,646 L149,623 L156,608 L161,595 L166,584 L175,565 L181,548 L186,534 L190,521 L193,511 L197,498 L205,472 L209,459 L214,440 L217,426 L220,413 L226,371 L228,346 L230,329 L232,297 L235,196 L237,159 L239,134 L243,113 L246,101 L247,101 L247,110 L245,118 L250,117 L265,116 L268,115 L324,111 L340,109 L355,108 L346,94 L337,77 L329,60 L326,55 L320,45 L314,35 L305,23 L293,14 L289,12 L283,12 L278,16 L270,29 L267,35 L265,41 L261,51 L255,72 L249,97 L247,100 L247,93 L254,64 L262,40 L266,31 L270,23 L273,20 L276,15 L281,10 L258,8 L251,6 L184,5 L141,5 L65,4 L52,3 L1,3 L-9,6 L-18,15 L-27,28 L-34,48 L-40,73 L-41,74 L-44,96 L-45,107 L-45,157 L-44,195 L-42,237 L-42,286 L-45,320 L-48,334 L-51,355 L-54,364 L-59,385 L-63,395 L-70,416 L-76,433 L-79,440 L-84,453 L-89,466 L-91,471 L-93,471 L-94,477 L-102,497 L-105,505 L-110,515 L-111,511 L-103,491 L-102,488 L-100,488 L-99,481 L-96,476 L-93,467 L-85,447 L-78,429 L-76,423 L-71,411 L-68,402 L-65,392 L-62,385 L-59,372 L-57,367 L-51,336 L-48,322 L-45,292 L-45,228 L-47,181 L-48,135 L-48,107 L-46,86 L-43,70 L-38,51 L-34,38 L-30,28 L-24,19 L-16,9 L-7,2 Z " fill="url(#g0)" transform="translate(471,31)"/>
<path d="M0,0 L1,2 L-6,14 L-17,29 L-27,42 L-38,60 L-52,80 L-60,90 L-73,107 L-81,118 L-87,129 L-94,144 L-95,147 L-97,147 L-98,153 L-104,166 L-109,180 L-111,190 L-112,191 L-114,205 L-114,224 L-112,230 L-102,232 L-102,234 L-95,234 L-75,238 L-60,242 L-30,247 L-22,249 L-8,251 L8,254 L28,258 L39,260 L65,265 L95,271 L111,274 L133,279 L159,284 L175,287 L191,291 L189,286 L188,275 L191,251 L193,245 L199,224 L203,214 L206,206 L208,206 L211,196 L215,188 L221,177 L228,164 L230,164 L228,170 L223,179 L214,196 L210,205 L201,229 L196,244 L192,263 L190,276 L200,277 L214,281 L214,285 L210,285 L209,288 L204,291 L201,291 L201,293 L193,294 L177,290 L156,286 L125,280 L106,276 L69,269 L45,264 L27,260 L1,256 L-30,250 L-60,245 L-72,242 L-84,240 L-90,239 L-90,237 L-97,237 L-112,235 L-117,227 L-118,220 L-117,199 L-112,181 L-104,157 L-98,145 L-90,129 L-84,118 L-76,107 L-67,95 L-56,81 L-48,70 L-38,56 L-33,47 L-25,35 L-15,22 L-8,12 L-1,1 Z " fill="url(#g1)" transform="translate(327,610)"/>
<path d="M0,0 L52,0 L77,2 L77,4 L65,4 L52,3 L1,3 L-9,6 L-18,15 L-27,28 L-34,48 L-40,73 L-41,74 L-44,96 L-45,107 L-45,157 L-44,195 L-42,237 L-42,286 L-45,320 L-48,334 L-51,355 L-54,364 L-59,385 L-63,395 L-70,416 L-76,433 L-79,440 L-84,453 L-89,466 L-91,471 L-93,471 L-94,477 L-102,497 L-105,505 L-110,515 L-111,511 L-103,491 L-102,488 L-100,488 L-99,481 L-96,476 L-93,467 L-85,447 L-78,429 L-76,423 L-71,411 L-68,402 L-65,392 L-62,385 L-59,372 L-57,367 L-51,336 L-48,322 L-45,292 L-45,228 L-47,181 L-48,135 L-48,107 L-46,86 L-43,70 L-38,51 L-34,38 L-30,28 L-24,19 L-16,9 L-7,2 Z " fill="url(#g2)" transform="translate(471,31)"/>
<path d="M0,0 L1,2 L-6,14 L-17,29 L-27,42 L-38,60 L-52,80 L-60,90 L-73,107 L-81,118 L-87,129 L-94,144 L-95,147 L-97,147 L-98,153 L-104,166 L-109,180 L-111,190 L-112,191 L-114,205 L-114,224 L-112,230 L-102,232 L-102,234 L-95,234 L-93,235 L-93,237 L-112,235 L-117,227 L-118,220 L-117,199 L-112,181 L-104,157 L-98,145 L-90,129 L-84,118 L-76,107 L-67,95 L-56,81 L-48,70 L-38,56 L-33,47 L-25,35 L-15,22 L-8,12 L-1,1 Z " fill="url(#g3)" transform="translate(327,610)"/>
<path d="M0,0 L2,0 L0,6 L-5,15 L-14,32 L-18,41 L-27,65 L-32,80 L-36,99 L-38,112 L-28,113 L-14,117 L-14,121 L-18,121 L-19,124 L-24,127 L-27,127 L-27,129 L-35,130 L-36,125 L-38,125 L-40,113 L-38,93 L-34,77 L-29,60 L-25,50 L-22,42 L-20,42 L-17,32 L-13,24 L-7,13 Z " fill="url(#g4)" transform="translate(555,774)"/>
<path d="M0,0 L156,1 L208,5 L214,6 L214,7 L208,8 L196,8 L183,6 L180,5 L113,4 L70,4 L6,3 L6,1 L0,1 Z " fill="url(#g5)" transform="translate(542,32)"/>
<path d="M0,0 L1,0 L2,7 L2,28 L0,100 L-2,130 L-5,165 L-9,199 L-12,216 L-14,214 L-13,205 L-8,165 L-7,150 L-5,133 L-3,101 Z " fill="url(#g6)" transform="translate(706,227)"/>
<path d="M0,0 L2,4 L0,12 L-3,33 L-6,42 L-11,63 L-15,73 L-22,94 L-28,111 L-31,118 L-36,131 L-41,144 L-43,149 L-45,149 L-46,155 L-54,175 L-57,183 L-62,193 L-63,189 L-55,169 L-54,166 L-52,166 L-51,159 L-48,154 L-45,145 L-37,125 L-30,107 L-28,101 L-23,89 L-20,80 L-17,70 L-14,63 L-11,50 L-9,45 L-3,14 Z " fill="url(#g7)" transform="translate(423,353)"/>
<path d="M0,0 L6,0 L22,4 L37,7 L72,13 L99,18 L110,20 L133,25 L152,29 L171,34 L194,39 L193,42 L183,39 L167,36 L158,34 L152,32 L120,25 L107,22 L88,19 L67,15 L44,11 L22,7 L2,2 Z " fill="url(#g8)" transform="translate(365,650)"/>
<path d="M0,0 L16,2 L41,7 L78,12 L87,14 L100,16 L114,18 L115,19 L145,24 L157,27 L178,31 L182,33 L182,34 L176,34 L175,33 L152,29 L145,27 L131,25 L114,21 L94,18 L70,14 L60,13 L59,12 L41,10 L31,8 L19,6 L17,5 L4,3 L0,2 Z " fill="#9a9a9a" transform="translate(426,560)"/>
<path d="M0,0 L52,0 L77,2 L77,4 L65,4 L52,3 L1,3 L-9,6 L-18,15 L-27,28 L-34,48 L-40,73 L-42,78 L-44,78 L-43,70 L-38,51 L-34,38 L-30,28 L-24,19 L-16,9 L-7,2 Z " fill="url(#g9)" transform="translate(471,31)"/>
<path d="M0,0 L1,0 L1,9 L-1,17 L4,16 L19,15 L22,14 L63,11 L78,11 L78,12 L64,14 L41,16 L8,18 L-2,19 L-4,36 L-8,78 L-9,102 L-10,102 L-10,71 L-7,33 L-3,12 Z " fill="url(#g10)" transform="translate(717,132)"/>
<path d="M0,0 L9,0 L41,6 L67,12 L77,14 L109,21 L109,23 L122,25 L134,28 L141,30 L141,32 L133,31 L127,29 L111,25 L102,23 L93,21 L87,19 L75,16 L44,10 L21,5 L5,2 L0,1 Z " fill="url(#g11)" transform="translate(350,750)"/>
<path d="M0,0 L9,1 L31,6 L48,9 L76,15 L95,18 L117,23 L119,24 L120,22 L120,26 L108,24 L95,21 L79,18 L53,13 L34,9 L-3,2 Z " fill="url(#g12)" transform="translate(399,877)"/>
<path d="M0,0 L12,0 L33,3 L76,8 L120,12 L126,13 L126,14 L111,14 L87,12 L61,9 L33,6 L13,3 L0,1 Z " fill="url(#g13)" transform="translate(478,233)"/>
<path d="M0,0 L11,1 L32,4 L40,6 L52,8 L68,11 L85,13 L107,16 L116,18 L116,19 L107,19 L84,16 L66,13 L42,9 L14,4 L2,2 Z " fill="url(#g14)" transform="translate(473,341)"/>
<path d="M0,0 L1,3 L-4,17 L-6,27 L-7,28 L-9,42 L-9,61 L-7,67 L3,69 L3,71 L10,71 L12,72 L12,74 L-7,72 L-12,64 L-13,57 L-12,36 L-7,18 L-2,3 Z " fill="url(#g15)" transform="translate(222,773)"/>
<path d="M0,0 L2,0 L1,9 L-1,29 L-1,79 L0,118 L-2,120 L-3,103 L-4,57 L-4,29 L-2,8 Z " fill="url(#g16)" transform="translate(427,109)"/>
<path d="M0,0 L6,0 L8,2 L-1,8 L-9,21 L-12,27 L-14,33 L-18,43 L-24,64 L-30,89 L-32,92 L-32,85 L-25,56 L-17,32 L-13,23 L-9,15 L-6,12 L-3,7 L2,2 Z " fill="url(#g17)" transform="translate(750,39)"/>
<path d="M0,0 L1,2 L0,10 L-3,17 L-8,30 L-13,43 L-15,48 L-17,48 L-18,54 L-26,74 L-29,82 L-34,92 L-35,88 L-27,68 L-26,65 L-24,65 L-23,58 L-20,53 L-17,44 L-9,24 L-2,6 Z " fill="url(#g18)" transform="translate(395,454)"/>
<path d="M0,0 L1,0 L2,7 L2,28 L0,100 L-1,100 L-2,92 L-2,66 Z " fill="url(#g19)" transform="translate(706,227)"/>
<path d="M0,0 L11,1 L20,4 L18,8 L12,12 L5,13 L3,9 L1,9 Z " fill="url(#g20)" transform="translate(517,888)"/>
<path d="M0,0 L16,2 L41,7 L78,12 L87,14 L87,16 L76,15 L60,13 L59,12 L41,10 L31,8 L19,6 L17,5 L4,3 L0,2 Z " fill="url(#g21)" transform="translate(426,560)"/>
<path d="M0,0 L7,0 L30,5 L49,9 L68,14 L91,19 L90,22 L80,19 L64,16 L55,14 L49,12 L17,5 L0,1 Z " fill="#8d8c8d" transform="translate(468,670)"/>
<path d="M0,0 L14,2 L33,7 L63,12 L76,15 L76,17 L63,15 L33,10 L21,7 L9,5 L3,4 L3,2 L0,2 Z " fill="url(#g22)" transform="translate(234,845)"/>
<path d="M0,0 L2,0 L-1,10 L-6,20 L-18,49 L-28,68 L-32,76 L-33,72 L-25,56 L-16,37 L-11,24 L-6,13 Z " fill="url(#g23)" transform="translate(643,602)"/>
<path d="M0,0 L52,0 L77,2 L77,4 L65,4 L52,3 L0,2 Z " fill="url(#g24)" transform="translate(471,31)"/>
<path d="M0,0 L1,0 L1,9 L11,10 L25,14 L25,18 L21,18 L20,21 L15,24 L12,24 L12,26 L4,27 L3,22 L1,22 L-1,10 Z M1,11 L2,20 L4,20 L6,24 L13,23 L19,19 L21,15 L12,12 Z " fill="url(#g25)" transform="translate(516,877)"/>
<path d="M0,0 L1,2 L-9,25 L-17,41 L-27,60 L-31,64 L-30,60 L-19,39 L-12,24 L-1,1 Z " fill="url(#g26)" transform="translate(359,546)"/>
<path d="M0,0 L10,1 L37,7 L37,9 L50,11 L62,14 L69,16 L69,18 L61,17 L55,15 L39,11 L30,9 L21,7 L15,5 L0,1 Z " fill="url(#g27)" transform="translate(422,764)"/>
<path d="M0,0 L4,5 L9,15 L18,28 L18,30 L-1,31 L-7,32 L-17,32 L-17,30 L-1,28 L14,27 L5,13 L0,4 Z " fill="url(#g28)" transform="translate(812,112)"/>
<path d="M0,0 L15,1 L32,3 L73,8 L74,11 L57,9 L47,8 L46,7 L19,4 L0,1 Z " fill="url(#g29)" transform="translate(590,360)"/>
<path d="M0,0 L10,0 L25,3 L61,9 L67,10 L67,11 L48,10 L21,5 L6,3 L0,1 Z " fill="url(#g30)" transform="translate(460,456)"/>
<path d="M0,0 L8,0 L51,7 L52,11 L47,11 L47,9 L23,6 L7,2 L0,1 Z " fill="url(#g31)" transform="translate(592,477)"/>
<path d="M0,0 L15,0 L15,1 L1,3 L-22,5 L-34,5 L-41,4 L-41,3 Z " fill="url(#g32)" transform="translate(780,143)"/>
<path d="M0,0 L4,1 L3,9 L-1,13 L-5,13 L-6,7 L-2,1 Z " fill="url(#g33)" transform="translate(290,724)"/>
<path d="M0,0 L4,1 L3,10 L-1,14 L-5,13 L-5,6 Z " fill="url(#g34)" transform="translate(401,542)"/>
<path d="M0,0 L5,1 L4,9 L-1,13 L-5,12 L-4,5 Z " fill="url(#g35)" transform="translate(353,635)"/>
<path d="M0,0 L4,1 L3,10 L-1,14 L-5,13 L-5,6 L-2,1 Z " fill="url(#g36)" transform="translate(440,440)"/>
<path d="M0,0 L5,2 L5,9 L4,13 L-2,14 L-3,13 L-2,4 Z " fill="url(#g37)" transform="translate(462,219)"/>
<path d="M0,0 L3,0 L3,2 L1,2 L-1,8 L-13,30 L-19,42 L-22,44 L-20,39 L-12,23 L-9,17 L-5,10 Z " fill="url(#g38)" transform="translate(579,729)"/>
<path d="M0,0 L4,1 L4,9 L2,13 L-3,14 L-4,13 L-4,5 Z " fill="url(#g39)" transform="translate(460,327)"/>
<path d="M0,0 L9,0 L20,1 L41,5 L41,6 L30,6 L18,4 L1,2 Z " fill="url(#g40)" transform="translate(528,467)"/>
<path d="M0,0 L1,0 L1,7 L-7,42 L-9,45 L-8,35 L-5,20 Z " fill="url(#g41)" transform="translate(692,441)"/>
<path d="M0,0 L3,1 L3,2 L-7,5 L-16,14 L-25,27 L-27,32 L-29,32 L-28,27 L-22,18 L-14,8 L-5,1 Z " fill="url(#g42)" transform="translate(469,32)"/>
<path d="M0,0 L12,1 L39,7 L40,9 L34,9 L33,8 L10,4 L0,1 Z " fill="url(#g43)" transform="translate(568,585)"/>
<path d="M0,0 L35,1 L33,3 L-2,3 L-4,1 Z " fill="url(#g44)" transform="translate(631,30)"/>
<path d="M0,0 L6,0 L22,4 L37,7 L36,9 L27,8 L2,2 Z " fill="url(#g45)" transform="translate(365,650)"/>
<path d="M0,0 L1,0 L2,21 L2,47 L1,47 L0,29 L-1,27 L-1,11 Z " fill="url(#g46)" transform="translate(425,238)"/>
<path d="M0,0 L14,2 L29,6 L26,8 L9,5 L3,4 L3,2 L0,2 Z " fill="url(#g47)" transform="translate(234,845)"/>
<path d="M0,0 L1,3 L-11,37 L-14,37 L-8,21 L-1,1 Z " fill="#757373" transform="translate(658,564)"/>
<path d="M0,0 L10,0 L27,2 L27,3 L21,4 L9,4 L0,3 Z " fill="#848484" transform="translate(729,36)"/>
<path d="M0,0 L2,4 L0,12 L-3,33 L-5,36 L-6,30 Z " fill="url(#g48)" transform="translate(423,353)"/>
<path d="M0,0 L2,0 L0,6 L-11,27 L-15,31 L-14,27 L-3,6 Z " fill="#666565" transform="translate(343,579)"/>
<path d="M0,0 L20,3 L32,5 L28,7 L19,6 L-2,2 Z " fill="url(#g49)" transform="translate(440,664)"/>
<path d="M0,0 L1,0 L2,16 L0,26 L-1,45 L-2,45 L-2,22 Z " fill="url(#g50)" transform="translate(710,188)"/>
<path d="M0,0 L2,0 L0,6 L-5,15 L-11,27 L-13,26 L-11,20 L-4,8 Z " fill="url(#g51)" transform="translate(555,774)"/>
<path d="M0,0 L2,4 L-8,23 L-12,31 L-13,27 L-5,11 Z " fill="#888787" transform="translate(623,647)"/>
<path d="M0,0 L4,1 L12,6 L17,10 L20,11 L23,17 L21,18 L16,13 L6,5 L-1,2 Z " fill="url(#g52)" transform="translate(758,40)"/>
<path d="M0,0 L1,0 L1,9 L4,10 L1,10 L2,20 L4,20 L6,23 L11,24 L10,26 L4,27 L3,22 L1,22 L-1,10 Z " fill="url(#g53)" transform="translate(516,877)"/>
<path d="M0,0 L4,5 L9,15 L17,27 L14,27 L5,13 L0,4 Z " fill="#898988" transform="translate(812,112)"/>
<path d="M0,0 L9,1 L25,4 L22,6 L13,5 L1,3 Z " fill="url(#g54)" transform="translate(310,860)"/>
<path d="M0,0 L22,0 L22,3 L6,3 L6,1 L0,1 Z " fill="url(#g55)" transform="translate(472,33)"/>
<path d="M0,0 L3,0 L3,2 L1,2 L0,8 L-5,20 L-8,19 L-5,10 Z " fill="url(#g56)" transform="translate(229,755)"/>
<path d="M0,0 L19,4 L27,5 L24,7 L16,6 L-4,2 Z " fill="#a2a1a2" transform="translate(398,758)"/>
<path d="M0,0 L2,0 L2,18 L0,21 L-1,14 L-1,4 Z " fill="url(#g57)" transform="translate(705,209)"/>
<path d="M0,0 L1,0 L2,25 L3,34 L0,37 Z " fill="url(#g58)" transform="translate(429,279)"/>
<path d="M0,0 L6,0 L7,2 L15,3 L15,4 L1,5 L0,3 L-13,2 L-13,1 Z " fill="url(#g59)" transform="translate(598,243)"/>
<path d="M0,0 L2,2 L1,12 L-2,21 L-4,21 L-3,13 Z " fill="#7e7d7e" transform="translate(431,88)"/>
<path d="M0,0 L1,0 L1,15 L0,24 L-1,24 L-2,19 L-2,9 Z " fill="url(#g60)" transform="translate(701,368)"/>
<path d="M0,0 L6,0 L8,1 L8,3 L12,4 L4,4 L4,5 L-5,4 L-6,1 Z " fill="url(#g61)" transform="translate(590,357)"/>
<path d="M0,0 L1,0 L1,37 L0,37 L-1,10 L-2,8 Z " fill="url(#g62)" transform="translate(426,286)"/>
<path d="M0,0 L4,2 L12,18 L14,22 L13,26 L5,9 Z " fill="url(#g63)" transform="translate(798,88)"/>
<path d="M0,0 L1,3 L-4,17 L-6,23 L-7,23 L-6,15 L-1,1 Z " fill="url(#g64)" transform="translate(222,773)"/>
<path d="M0,0 L17,2 L19,3 L19,5 L0,3 Z " fill="url(#g65)" transform="translate(215,842)"/>
<path d="M0,0 L1,2 L0,10 L-3,17 L-5,21 L-6,16 L-2,6 Z " fill="#898989" transform="translate(395,454)"/>
<path d="M0,0 L2,0 L2,18 L1,18 L0,13 L-1,13 L-1,2 Z " fill="url(#g66)" transform="translate(423,212)"/>
<path d="M0,0 L8,0 L4,2 L2,3 L-10,3 L-17,2 L-17,1 Z " fill="url(#g67)" transform="translate(756,145)"/>
<path d="M0,0 L6,0 L8,2 L-1,8 L-6,15 L-6,12 L-3,7 L2,2 Z " fill="url(#g68)" transform="translate(750,39)"/>
<path d="M0,0 L10,1 L18,3 L18,5 L9,4 L0,2 Z " fill="#8e8e8e" transform="translate(433,884)"/>
<path d="M0,0 L2,1 L-8,15 L-12,21 L-13,18 L-6,8 Z " fill="#747373" transform="translate(257,709)"/>
<path d="M0,0 L2,0 L-1,10 L-6,20 L-7,16 L-1,3 Z " fill="url(#g69)" transform="translate(631,629)"/>
<path d="M0,0 L9,0 L22,3 L22,4 L13,4 L11,3 L1,2 Z " fill="url(#g70)" transform="translate(570,473)"/>
<path d="M0,0 L2,0 L0,16 L-4,18 L-2,7 Z " fill="url(#g71)" transform="translate(426,101)"/>
<path d="M0,0 L1,0 L1,8 L-3,21 L-5,19 L-4,12 L-1,4 Z " fill="url(#g72)" transform="translate(682,483)"/>
<path d="M0,0 L30,0 L30,1 L22,2 L18,3 L17,2 L0,1 Z " fill="url(#g73)" transform="translate(580,35)"/>
<path d="M0,0 L2,2 L-4,13 L-5,18 L-7,16 L-6,10 L-1,1 Z " fill="url(#g74)" transform="translate(742,53)"/>
<path d="M0,0 L2,2 L-5,11 L-8,18 L-10,18 L-9,13 L-3,4 Z " fill="url(#g75)" transform="translate(450,46)"/>
</svg>
